<?xml version="1.0" encoding="UTF-8" standalone="no"?>
<!-- Created with Inkscape (http://www.inkscape.org/) -->

<svg
   width="128.55775mm"
   height="99.362869mm"
   viewBox="0 0 128.55775 99.362869"
   version="1.1"
   id="svg5"
   inkscape:version="1.1.2 (b8e25be833, 2022-02-05)"
   sodipodi:docname="multiplayer.svg"
   xmlns:inkscape="http://www.inkscape.org/namespaces/inkscape"
   xmlns:sodipodi="http://sodipodi.sourceforge.net/DTD/sodipodi-0.dtd"
   xmlns="http://www.w3.org/2000/svg"
   xmlns:svg="http://www.w3.org/2000/svg">
  <sodipodi:namedview
     id="namedview7"
     pagecolor="#505050"
     bordercolor="#eeeeee"
     borderopacity="1"
     inkscape:pageshadow="0"
     inkscape:pageopacity="0"
     inkscape:pagecheckerboard="0"
     inkscape:document-units="mm"
     showgrid="false"
     inkscape:zoom="0.77771465"
     inkscape:cx="253.94918"
     inkscape:cy="281.59429"
     inkscape:window-width="2560"
     inkscape:window-height="1417"
     inkscape:window-x="-8"
     inkscape:window-y="-8"
     inkscape:window-maximized="1"
     inkscape:current-layer="layer1" />
  <defs
     id="defs2" />
  <g
     inkscape:label="Layer 1"
     inkscape:groupmode="layer"
     id="layer1"
     transform="translate(-37.777105,-73.970329)">
    <path
       style="fill:#fff;stroke-width:0.264583"
       d="m 40.851873,172.98287 c -2.804265,-0.99986 -3.675684,-3.40491 -2.674376,-7.38109 3.185337,-12.64888 10.854158,-23.68851 21.286441,-30.64284 2.72773,-1.81835 8.745934,-4.9818 9.477457,-4.9818 0.204591,0 -0.763746,-1.07486 -2.151864,-2.38857 -6.714041,-6.35415 -9.809234,-13.47479 -9.830084,-22.61456 -0.0099,-4.3286 0.284028,-6.312473 1.483958,-10.016947 1.975626,-6.099244 6.52548,-12.151583 11.856448,-15.771774 8.805635,-5.979793 20.258156,-6.84906 29.835887,-2.2646 3.246,1.553722 5.28939,2.975599 7.95773,5.537308 2.9617,2.84335 4.55689,5.002504 6.27475,8.4931 4.44879,9.039714 4.45047,18.815053 0.005,27.781253 -1.7654,3.56051 -3.3214,5.64755 -6.48244,8.69479 -1.33375,1.28575 -2.38716,2.36628 -2.34091,2.4012 0.0463,0.0349 1.48578,0.73178 3.19896,1.5486 13.50031,6.43671 23.67464,18.89495 27.35106,33.49076 0.81324,3.22868 0.87719,3.73574 0.61105,4.84514 -0.75037,3.12788 -4.28019,4.55914 -6.87986,2.78962 -1.38356,-0.94174 -1.7961,-1.72435 -2.61168,-4.95449 -1.86834,-7.39958 -5.30893,-13.65263 -10.45398,-18.99947 -8.0857,-8.40281 -18.125063,-12.74355 -29.486046,-12.74897 -10.813902,-0.005 -20.635339,4.00272 -28.434009,11.60318 -5.888662,5.739 -9.95126,13.02698 -11.819681,21.20359 -0.182888,0.80037 -0.490866,1.76845 -0.684392,2.1513 -0.496727,0.98265 -1.803901,2.01423 -2.958778,2.33498 -1.218623,0.33844 -1.281094,0.33573 -2.530411,-0.10971 z m 51.635888,-47.25405 c 9.736639,-2.46009 16.477029,-11.91491 15.833639,-22.21002 -0.55391,-8.863386 -6.25396,-16.410384 -14.461629,-19.147532 -6.95901,-2.320737 -14.266534,-0.924409 -20.033877,3.82809 -3.147015,2.593253 -5.885172,6.900916 -7.000843,11.013708 -0.736254,2.714104 -0.802196,8.070244 -0.132472,10.759564 1.030177,4.13674 3.94974,8.89743 6.992872,11.40271 5.498507,4.52667 12.082915,6.05122 18.80231,4.35348 z m 67.999059,47.38041 c -2.12545,-0.64145 -2.74879,-1.69527 -3.6703,-6.20504 -3.35533,-16.42046 -12.17061,-27.10179 -26.30752,-31.87635 -2.01074,-0.6791 -3.38658,-1.30815 -3.86624,-1.76769 -0.78691,-0.75391 -1.56608,-2.65292 -1.55635,-3.79317 0.009,-1.02853 0.90808,-2.80048 1.70479,-3.35906 5.68969,-3.98913 8.824,-8.58828 10.52594,-15.44537 0.74694,-3.00939 0.79284,-8.2923 0.0954,-10.980203 -1.10563,-4.261065 -4.02321,-8.977569 -7.1074,-11.489685 -3.52558,-2.871633 -7.06356,-4.306351 -12.05219,-4.887382 -3.46951,-0.404097 -3.90732,-0.560376 -4.91081,-1.752957 -2.13293,-2.534852 -0.90531,-6.562467 2.26004,-7.414809 1.25379,-0.337611 4.32399,-0.150523 7.22947,0.44054 12.68545,2.580613 22.51484,13.260502 24.20093,26.294916 0.65247,5.04402 0.0231,10.34956 -1.89793,15.9992 -0.83653,2.46019 -3.23687,7.00135 -4.84503,9.16619 -0.79788,1.07407 -1.44968,2.01273 -1.44845,2.08592 0.001,0.0732 0.79545,0.54978 1.76494,1.05911 12.91797,6.7865 21.95963,19.31671 25.08815,34.76792 1.00644,4.97062 0.86761,6.54635 -0.70619,8.0158 -1.26275,1.17902 -2.95564,1.60857 -4.50125,1.14212 z"
       id="path946" />
  </g>
</svg>
