<svg width="100" height="100" viewBox="0 0 100 100" fill="none" xmlns="http://www.w3.org/2000/svg">
<path d="M0 50C0 31.3077 0 21.9615 4.01924 15C6.65229 10.4394 10.4394 6.65229 15 4.01924C21.9615 0 31.3077 0 50 0C68.6923 0 78.0385 0 85 4.01924C89.5606 6.65229 93.3477 10.4394 95.9808 15C100 21.9615 100 31.3077 100 50C100 68.6923 100 78.0385 95.9808 85C93.3477 89.5606 89.5606 93.3477 85 95.9808C78.0385 100 68.6923 100 50 100C31.3077 100 21.9615 100 15 95.9808C10.4394 93.3477 6.65229 89.5606 4.01924 85C0 78.0385 0 68.6923 0 50Z" fill="url(#paint0_linear_109_212)"/>
<path d="M11.9109 65.932C9.60688 65.932 8.45488 64.732 8.45488 62.332V34.972C8.45488 33.756 8.74288 32.828 9.31888 32.188C9.92688 31.548 10.7269 31.228 11.7189 31.228C12.5509 31.228 13.2069 31.404 13.6869 31.756C14.1669 32.076 14.7109 32.62 15.3189 33.388L30.8709 53.212V34.78C30.8709 32.412 32.0229 31.228 34.3269 31.228C36.6309 31.228 37.7829 32.412 37.7829 34.78V62.476C37.7829 63.532 37.5109 64.38 36.9669 65.02C36.4229 65.628 35.6869 65.932 34.7589 65.932C33.8629 65.932 33.1429 65.756 32.5989 65.404C32.0869 65.052 31.5269 64.492 30.9189 63.724L15.3669 43.9V62.332C15.3669 64.732 14.2149 65.932 11.9109 65.932ZM57.1235 65.932C56.0675 65.932 55.2195 65.692 54.5795 65.212C53.9715 64.7 53.4755 63.932 53.0915 62.908L43.3955 35.644C42.9475 34.428 43.0275 33.388 43.6355 32.524C44.2435 31.66 45.2835 31.228 46.7555 31.228C47.7795 31.228 48.5635 31.468 49.1075 31.948C49.6835 32.428 50.1475 33.18 50.4995 34.204L57.4115 54.796L64.7075 34.252C65.0595 33.228 65.5235 32.476 66.0995 31.996C66.6755 31.484 67.4275 31.228 68.3555 31.228C69.2515 31.228 69.9715 31.484 70.5155 31.996C71.0595 32.476 71.5235 33.244 71.9075 34.3L78.9635 55.18L86.1635 34.204C86.4835 33.212 86.9315 32.476 87.5075 31.996C88.0835 31.484 88.8675 31.228 89.8595 31.228C91.1075 31.228 92.0195 31.66 92.5955 32.524C93.1715 33.388 93.2355 34.428 92.7875 35.644L82.9955 62.956C82.6435 63.948 82.1475 64.7 81.5075 65.212C80.8995 65.692 80.0835 65.932 79.0595 65.932C78.0355 65.932 77.2195 65.692 76.6115 65.212C76.0035 64.7 75.5075 63.932 75.1235 62.908L68.1155 43.036L61.0115 62.956C60.6275 63.948 60.1315 64.7 59.5235 65.212C58.9475 65.692 58.1475 65.932 57.1235 65.932Z" fill="#A3A3AE"/>
<path d="M15 95.9808L18 90.7846L15 95.9808ZM4.01924 85L-1.17692 88L4.01924 85ZM95.9808 85L90.7846 82L95.9808 85ZM85 95.9808L82 90.7846L85 95.9808ZM85 4.01924L88 -1.17692L85 4.01924ZM95.9808 15L90.7846 18L95.9808 15ZM4.01924 15L-1.17692 12L4.01924 15ZM50 94C40.5434 94 33.8521 93.9943 28.6425 93.5221C23.5154 93.0574 20.4154 92.1791 18 90.7846L12 101.177C16.5462 103.802 21.6 104.933 27.5594 105.473C33.4363 106.006 40.7643 106 50 106V94ZM-6 50C-6 59.2357 -6.00575 66.5637 -5.4731 72.4406C-4.93298 78.4 -3.80164 83.4538 -1.17692 88L9.21539 82C7.82088 79.5846 6.9426 76.4846 6.47791 71.3575C6.00575 66.1479 6 59.4566 6 50H-6ZM18 90.7846C14.3515 88.6782 11.3218 85.6485 9.21539 82L-1.17692 88C1.98274 93.4727 6.52731 98.0173 12 101.177L18 90.7846ZM94 50C94 59.4566 93.9943 66.1479 93.5221 71.3575C93.0574 76.4846 92.1791 79.5846 90.7846 82L101.177 88C103.802 83.4538 104.933 78.4 105.473 72.4406C106.006 66.5637 106 59.2357 106 50H94ZM50 106C59.2357 106 66.5637 106.006 72.4406 105.473C78.4 104.933 83.4538 103.802 88 101.177L82 90.7846C79.5846 92.1791 76.4846 93.0574 71.3575 93.5221C66.1479 93.9943 59.4566 94 50 94V106ZM90.7846 82C88.6782 85.6485 85.6485 88.6782 82 90.7846L88 101.177C93.4727 98.0173 98.0173 93.4727 101.177 88L90.7846 82ZM50 6C59.4566 6 66.1479 6.00575 71.3575 6.47791C76.4846 6.9426 79.5846 7.82088 82 9.21539L88 -1.17692C83.4538 -3.80164 78.4 -4.93298 72.4406 -5.4731C66.5637 -6.00575 59.2357 -6 50 -6V6ZM106 50C106 40.7643 106.006 33.4363 105.473 27.5594C104.933 21.6 103.802 16.5462 101.177 12L90.7846 18C92.1791 20.4154 93.0574 23.5154 93.5221 28.6425C93.9943 33.8521 94 40.5434 94 50H106ZM82 9.21539C85.6485 11.3218 88.6782 14.3515 90.7846 18L101.177 12C98.0173 6.52731 93.4727 1.98274 88 -1.17692L82 9.21539ZM50 -6C40.7643 -6 33.4363 -6.00575 27.5594 -5.4731C21.6 -4.93298 16.5462 -3.80164 12 -1.17692L18 9.21539C20.4154 7.82088 23.5154 6.9426 28.6425 6.47791C33.8521 6.00575 40.5434 6 50 6V-6ZM6 50C6 40.5434 6.00575 33.8521 6.47791 28.6425C6.9426 23.5154 7.82088 20.4154 9.21539 18L-1.17692 12C-3.80164 16.5462 -4.93298 21.6 -5.4731 27.5594C-6.00575 33.4363 -6 40.7643 -6 50H6ZM12 -1.17692C6.52731 1.98274 1.98274 6.52731 -1.17692 12L9.21539 18C11.3218 14.3515 14.3515 11.3218 18 9.21539L12 -1.17692Z" fill="url(#paint1_linear_109_212)"/>
<defs>
<linearGradient id="paint0_linear_109_212" x1="0" y1="0" x2="100" y2="100" gradientUnits="userSpaceOnUse">
<stop stop-color="#2D3047"/>
<stop offset="1" stop-color="#48495F"/>
</linearGradient>
<linearGradient id="paint1_linear_109_212" x1="0" y1="0" x2="100" y2="100" gradientUnits="userSpaceOnUse">
<stop stop-color="#48495F"/>
<stop offset="1" stop-color="#2D3047"/>
</linearGradient>
</defs>
</svg>
