<svg width="100" height="100" viewBox="0 0 100 100" fill="none" xmlns="http://www.w3.org/2000/svg">
<path d="M11.9109 65.932C9.60688 65.932 8.45488 64.732 8.45488 62.332V34.972C8.45488 33.756 8.74288 32.828 9.31888 32.188C9.92688 31.548 10.7269 31.228 11.7189 31.228C12.5509 31.228 13.2069 31.404 13.6869 31.756C14.1669 32.076 14.7109 32.62 15.3189 33.388L30.8709 53.212V34.78C30.8709 32.412 32.0229 31.228 34.3269 31.228C36.6309 31.228 37.7829 32.412 37.7829 34.78V62.476C37.7829 63.532 37.5109 64.38 36.9669 65.02C36.4229 65.628 35.6869 65.932 34.7589 65.932C33.8629 65.932 33.1429 65.756 32.5989 65.404C32.0869 65.052 31.5269 64.492 30.9189 63.724L15.3669 43.9V62.332C15.3669 64.732 14.2149 65.932 11.9109 65.932ZM57.1235 65.932C56.0675 65.932 55.2195 65.692 54.5795 65.212C53.9715 64.7 53.4755 63.932 53.0915 62.908L43.3955 35.644C42.9475 34.428 43.0275 33.388 43.6355 32.524C44.2435 31.66 45.2835 31.228 46.7555 31.228C47.7795 31.228 48.5635 31.468 49.1075 31.948C49.6835 32.428 50.1475 33.18 50.4995 34.204L57.4115 54.796L64.7075 34.252C65.0595 33.228 65.5235 32.476 66.0995 31.996C66.6755 31.484 67.4275 31.228 68.3555 31.228C69.2515 31.228 69.9715 31.484 70.5155 31.996C71.0595 32.476 71.5235 33.244 71.9075 34.3L78.9635 55.18L86.1635 34.204C86.4835 33.212 86.9315 32.476 87.5075 31.996C88.0835 31.484 88.8675 31.228 89.8595 31.228C91.1075 31.228 92.0195 31.66 92.5955 32.524C93.1715 33.388 93.2355 34.428 92.7875 35.644L82.9955 62.956C82.6435 63.948 82.1475 64.7 81.5075 65.212C80.8995 65.692 80.0835 65.932 79.0595 65.932C78.0355 65.932 77.2195 65.692 76.6115 65.212C76.0035 64.7 75.5075 63.932 75.1235 62.908L68.1155 43.036L61.0115 62.956C60.6275 63.948 60.1315 64.7 59.5235 65.212C58.9475 65.692 58.1475 65.932 57.1235 65.932Z" fill="white"/>
<rect x="3" y="3" width="94" height="94" rx="27" stroke="url(#paint0_linear_210_473)" stroke-width="6"/>
<defs>
<linearGradient id="paint0_linear_210_473" x1="0" y1="0" x2="100" y2="100" gradientUnits="userSpaceOnUse">
<stop stop-color="white"/>
<stop offset="1" stop-color="#D3D3D3"/>
</linearGradient>
</defs>
</svg>
