<?xml version="1.0" encoding="UTF-8" standalone="no"?>
<svg
   xmlns:dc="http://purl.org/dc/elements/1.1/"
   xmlns:cc="http://creativecommons.org/ns#"
   xmlns:rdf="http://www.w3.org/1999/02/22-rdf-syntax-ns#"
   xmlns:svg="http://www.w3.org/2000/svg"
   xmlns="http://www.w3.org/2000/svg"
   xmlns:sodipodi="http://sodipodi.sourceforge.net/DTD/sodipodi-0.dtd"
   xmlns:inkscape="http://www.inkscape.org/namespaces/inkscape"
   width="112.00001"
   height="112.00001"
   viewBox="0 0 112.00001 112.00001"
   fill="none"
   version="1.1"
   id="svg20"
   sodipodi:docname="nw.svg"
   inkscape:export-filename="C:\Users\brimell\General\Github\not-wordle\public\pwa-512x512.png"
   inkscape:export-xdpi="438.85712"
   inkscape:export-ydpi="438.85712"
   inkscape:version="1.0.1 (3bc2e813f5, 2020-09-07)">
  <metadata
     id="metadata24">
    <rdf:RDF>
      <cc:Work
         rdf:about="">
        <dc:format>image/svg+xml</dc:format>
        <dc:type
           rdf:resource="http://purl.org/dc/dcmitype/StillImage" />
      </cc:Work>
    </rdf:RDF>
  </metadata>
  <sodipodi:namedview
     pagecolor="#ffffff"
     bordercolor="#666666"
     borderopacity="1"
     objecttolerance="10"
     gridtolerance="10"
     guidetolerance="10"
     inkscape:pageopacity="0"
     inkscape:pageshadow="2"
     inkscape:window-width="2736"
     inkscape:window-height="1790"
     id="namedview22"
     showgrid="false"
     inkscape:zoom="7.35"
     inkscape:cx="56.000003"
     inkscape:cy="56.000003"
     inkscape:window-x="-11"
     inkscape:window-y="-11"
     inkscape:window-maximized="1"
     inkscape:current-layer="svg20" />
  <path
     d="m 6.0000026,56.000003 c 0,-18.6923 0,-28.0385 4.0192404,-35 2.63305,-4.5606 6.42016,-8.34771 10.98076,-10.98076 6.9615,-4.0192404 16.3077,-4.0192404 35,-4.0192404 18.6923,0 28.0385,0 35,4.0192404 4.5606,2.63305 8.3477,6.42016 10.980797,10.98076 4.0192,6.9615 4.0192,16.3077 4.0192,35 0,18.6923 0,28.0385 -4.0192,35 -2.633097,4.5606 -6.420197,8.3477 -10.980797,10.980797 -6.9615,4.0192 -16.3077,4.0192 -35,4.0192 -18.6923,0 -28.0385,0 -35,-4.0192 -4.5606,-2.633097 -8.34771,-6.420197 -10.98076,-10.980797 -4.0192404,-6.9615 -4.0192404,-16.3077 -4.0192404,-35 z"
     fill="url(#paint0_linear_109_212)"
     id="path2"
     style="fill:url(#paint0_linear_109_212)" />
  <path
     d="m 17.910903,71.932003 c -2.30402,0 -3.45602,-1.2 -3.45602,-3.6 v -27.36 c 0,-1.216 0.288,-2.144 0.864,-2.784 0.608,-0.64 1.40802,-0.96 2.40002,-0.96 0.832,0 1.488,0.176 1.968,0.528 0.48,0.32 1.024,0.864 1.632,1.632 l 15.552,19.824 v -18.432 c 0,-2.368 1.152,-3.552 3.456,-3.552 2.304,0 3.456,1.184 3.456,3.552 v 27.696 c 0,1.056 -0.272,1.904 -0.816,2.544 -0.544,0.608 -1.28,0.912 -2.208,0.912 -0.896,0 -1.616,-0.176 -2.16,-0.528 -0.512,-0.352 -1.072,-0.912 -1.68,-1.68 l -15.552,-19.824 v 18.432 c 0,2.4 -1.152,3.6 -3.456,3.6 z m 45.2126,0 c -1.056,0 -1.904,-0.24 -2.544,-0.72 -0.608,-0.512 -1.104,-1.28 -1.488,-2.304 l -9.696,-27.264 c -0.448,-1.216 -0.368,-2.256 0.24,-3.12 0.608,-0.864 1.648,-1.296 3.12,-1.296 1.024,0 1.808,0.24 2.352,0.72 0.576,0.48 1.04,1.232 1.392,2.256 l 6.912,20.592 7.296,-20.544 c 0.352,-1.024 0.816,-1.776 1.392,-2.256 0.576,-0.512 1.328,-0.768 2.256,-0.768 0.896,0 1.616,0.256 2.16,0.768 0.544,0.48 1.008,1.248 1.392,2.304 l 7.056,20.88 7.2,-20.976 c 0.32,-0.992 0.768,-1.728 1.344,-2.208 0.576,-0.512 1.36,-0.768 2.352,-0.768 1.248,0 2.16,0.432 2.736,1.296 0.576,0.864 0.64,1.904 0.192,3.12 l -9.792,27.312 c -0.352,0.992 -0.848,1.744 -1.488,2.256 -0.608,0.48 -1.424,0.72 -2.448,0.72 -1.024,0 -1.84,-0.24 -2.448,-0.72 -0.608,-0.512 -1.104,-1.28 -1.488,-2.304 l -7.008,-19.872 -7.104,19.92 c -0.384,0.992 -0.88,1.744 -1.488,2.256 -0.576,0.48 -1.376,0.72 -2.4,0.72 z"
     fill="#a3a3ae"
     id="path4" />
  <path
     d="m 21.000003,101.9808 3,-5.196197 z m -10.98076,-10.980797 -5.1961604,3 z m 91.961557,0 -5.196197,-3 z m -10.980797,10.980797 -3,-5.196197 z m 0,-91.961557 3,-5.1961604 z m 10.980797,10.98076 -5.196197,3 z m -91.961557,0 -5.1961604,-3 z M 56.000003,100 c -9.4566,0 -16.1479,-0.0057 -21.3575,-0.477897 -5.1271,-0.4647 -8.2271,-1.343 -10.6425,-2.7375 l -6,10.392397 c 4.5462,2.625 9.6,3.756 15.5594,4.296 5.8769,0.533 13.2049,0.527 22.4406,0.527 z M 2.5681847e-6,56.000003 c 0,9.2357 -0.00574999818,16.5637 0.5269000018153,22.4406 0.54012003,5.9594 1.67146003,11.0132 4.29618003,15.5594 l 10.3923104,-6 c -1.39451,-2.4154 -2.27279,-5.5154 -2.73748,-10.6425 -0.47216,-5.2096 -0.47791,-11.9009 -0.47791,-21.3575 z M 24.000003,96.784603 c -3.6485,-2.1064 -6.6782,-5.1361 -8.78461,-8.7846 l -10.3923104,6 c 3.15966,5.4727 7.7042304,10.017297 13.1769204,13.176997 z M 100,56.000003 c 0,9.4566 -0.0057,16.1479 -0.477897,21.3575 -0.4647,5.1271 -1.343,8.2271 -2.7375,10.6425 l 10.392397,6 c 2.625,-4.5462 3.756,-9.6 4.296,-15.5594 0.533,-5.8769 0.527,-13.2049 0.527,-22.4406 z M 56.000003,112 c 9.2357,0 16.5637,0.006 22.4406,-0.527 5.9594,-0.54 11.0132,-1.671 15.5594,-4.296 l -6,-10.392397 c -2.4154,1.3945 -5.5154,2.2728 -10.6425,2.7375 C 72.147903,99.994303 65.456603,100 56.000003,100 Z m 40.7846,-23.999997 c -2.1064,3.6485 -5.1361,6.6782 -8.7846,8.7846 l 6,10.392397 c 5.4727,-3.1597 10.017297,-7.704297 13.176997,-13.176997 z m -40.7846,-76 c 9.4566,0 16.1479,0.0058 21.3575,0.47791 5.1271,0.46469 8.2271,1.34297 10.6425,2.73748 l 6,-10.3923104 c -4.5462,-2.62472 -9.6,-3.75606 -15.5594,-4.29618003 -5.8769,-0.53265 -13.2049,-0.5269000018153 -22.4406,-0.5269000018153 z m 55.999997,44 c 0,-9.2357 0.006,-16.5637 -0.527,-22.4406 -0.54,-5.9594 -1.671,-11.0132 -4.296,-15.5594 l -10.392397,6 c 1.3945,2.4154 2.2728,5.5154 2.7375,10.6425 0.4722,5.2096 0.477897,11.9009 0.477897,21.3575 z M 88.000003,15.215393 c 3.6485,2.10641 6.6782,5.13611 8.7846,8.78461 l 10.392397,-6 C 104.0173,12.527313 99.472703,7.9827426 94.000003,4.8230826 Z m -32,-15.2153904318153 c -9.2357,0 -16.5637,-0.00574999818 -22.4406,0.5269000018153 -5.9594,0.54012003 -11.0132,1.67146003 -15.5594,4.29618003 l 6,10.3923104 c 2.4154,-1.39451 5.5154,-2.27279 10.6425,-2.73748 5.2096,-0.47216 11.9009,-0.47791 21.3575,-0.47791 z M 12.000003,56.000003 c 0,-9.4566 0.0058,-16.1479 0.47791,-21.3575 0.46469,-5.1271 1.34297,-8.2271 2.73748,-10.6425 l -10.3923104,-6 c -2.62472,4.5462 -3.75606,9.6 -4.29618003,15.5594 -0.53265,5.8769 -0.5269000018153,13.2049 -0.5269000018153,22.4406 z m 6,-51.1769204 C 12.527313,7.9827426 7.9827426,12.527313 4.8230826,18.000003 l 10.3923104,6 c 2.10641,-3.6485 5.13611,-6.6782 8.78461,-8.78461 z"
     fill="url(#paint1_linear_109_212)"
     id="path6"
     style="fill:url(#paint1_linear_109_212)" />
  <defs
     id="defs18">
    <linearGradient
       id="paint0_linear_109_212"
       x1="0"
       y1="0"
       x2="100"
       y2="100"
       gradientUnits="userSpaceOnUse"
       gradientTransform="translate(6.0000026,6.0000026)">
      <stop
         stop-color="#2D3047"
         id="stop8" />
      <stop
         offset="1"
         stop-color="#48495F"
         id="stop10" />
    </linearGradient>
    <linearGradient
       id="paint1_linear_109_212"
       x1="0"
       y1="0"
       x2="100"
       y2="100"
       gradientUnits="userSpaceOnUse"
       gradientTransform="translate(6.0000026,6.0000026)">
      <stop
         stop-color="#48495F"
         id="stop13" />
      <stop
         offset="1"
         stop-color="#2D3047"
         id="stop15" />
    </linearGradient>
  </defs>
</svg>
