<?xml version="1.0" standalone="no"?>
<!DOCTYPE svg PUBLIC "-//W3C//DTD SVG 20010904//EN"
 "http://www.w3.org/TR/2001/REC-SVG-20010904/DTD/svg10.dtd">
<svg version="1.0" xmlns="http://www.w3.org/2000/svg"
 width="700.000000pt" height="700.000000pt" viewBox="0 0 700.000000 700.000000"
 preserveAspectRatio="xMidYMid meet">
<metadata>
Created by potrace 1.14, written by Peter Selinger 2001-2017
</metadata>
<g transform="translate(0.000000,700.000000) scale(0.100000,-0.100000)"
fill="#000000" stroke="none">
<path d="M2600 6994 c-907 -27 -1319 -142 -1755 -489 -182 -144 -357 -338
-484 -535 -210 -325 -301 -659 -343 -1270 -18 -260 -18 -2140 0 -2400 42 -611
133 -945 343 -1270 169 -262 407 -500 669 -669 324 -209 658 -300 1265 -343
257 -18 2157 -18 2415 0 371 27 628 69 835 138 577 191 1102 713 1296 1291 92
273 130 557 150 1113 13 374 6 1950 -10 2170 -43 585 -136 922 -342 1240 -171
264 -405 499 -669 669 -321 208 -653 299 -1245 342 -138 10 -1869 20 -2125 13z
m-1419 -2336 c19 -6 49 -23 67 -37 19 -13 190 -223 380 -465 190 -243 417
-532 505 -643 87 -112 163 -205 168 -208 5 -4 9 230 9 597 0 407 4 616 11 643
22 79 97 125 204 125 94 -1 154 -35 186 -105 18 -38 19 -89 19 -975 0 -888 -1
-937 -19 -975 -34 -73 -86 -105 -170 -105 -63 0 -107 16 -156 56 -22 18 -265
321 -540 673 -275 352 -503 640 -507 640 -5 1 -8 -272 -8 -606 -1 -641 -2
-655 -47 -705 -64 -72 -240 -78 -317 -10 -10 9 -27 35 -37 57 -18 38 -19 89
-19 970 0 893 1 932 19 972 43 93 150 136 252 101z m2192 1 c52 -14 106 -64
133 -123 13 -28 118 -336 235 -685 116 -350 215 -640 219 -644 3 -4 109 282
235 635 125 354 239 666 252 695 44 95 125 141 227 129 65 -7 119 -45 153
-105 16 -26 129 -348 253 -715 124 -366 227 -666 230 -666 3 0 109 302 235
672 153 446 240 687 260 717 53 80 128 112 229 97 96 -15 162 -97 152 -191 -5
-50 -612 -1759 -654 -1841 -26 -51 -79 -98 -128 -114 -22 -8 -66 -11 -111 -8
-91 6 -141 37 -184 113 -16 28 -128 332 -249 675 -121 343 -222 626 -225 628
-3 3 -6 3 -8 1 -2 -2 -102 -281 -222 -619 -120 -338 -229 -636 -242 -662 -31
-63 -84 -115 -130 -127 -119 -33 -238 3 -292 88 -29 44 -633 1720 -662 1834
-22 89 31 184 120 211 56 18 123 20 174 5z"/>
</g>
</svg>
