<?xml version="1.0" encoding="UTF-8" standalone="no"?>
<!-- Created with Inkscape (http://www.inkscape.org/) -->

<svg
   width="145.39938mm"
   height="106.57221mm"
   viewBox="0 0 145.39938 106.57221"
   version="1.1"
   id="svg5"
   inkscape:version="1.1.2 (b8e25be833, 2022-02-05)"
   sodipodi:docname="timed.svg"
   xmlns:inkscape="http://www.inkscape.org/namespaces/inkscape"
   xmlns:sodipodi="http://sodipodi.sourceforge.net/DTD/sodipodi-0.dtd"
   xmlns="http://www.w3.org/2000/svg"
   xmlns:svg="http://www.w3.org/2000/svg">
  <sodipodi:namedview
     id="namedview7"
     pagecolor="#505050"
     bordercolor="#eeeeee"
     borderopacity="1"
     inkscape:pageshadow="0"
     inkscape:pageopacity="0"
     inkscape:pagecheckerboard="0"
     inkscape:document-units="mm"
     showgrid="false"
     inkscape:zoom="0.77771465"
     inkscape:cx="253.30627"
     inkscape:cy="281.59429"
     inkscape:window-width="2560"
     inkscape:window-height="1417"
     inkscape:window-x="-8"
     inkscape:window-y="-8"
     inkscape:window-maximized="1"
     inkscape:current-layer="layer1" />
  <defs
     id="defs2" />
  <g
     inkscape:label="Layer 1"
     inkscape:groupmode="layer"
     id="layer1"
     transform="translate(-36.735319,-73.821762)">
    <path
       style="fill:#fff;stroke-width:0.264583"
       d="m 130.24757,180.11686 c -10.96512,-1.40701 -19.95049,-5.86227 -27.73462,-13.7518 l -3.102804,-3.14481 H 84.104378 c -15.305768,0 -15.305768,0 -15.881057,-0.61236 -0.789209,-0.84008 -0.809426,-3.00529 -0.03581,-3.83566 0.539472,-0.57906 0.539472,-0.57906 18.123586,-0.57906 h 17.584113 l 3.10923,3.14193 c 1.71007,1.72806 3.88313,3.70558 4.82901,4.39449 8.06534,5.87421 17.07477,8.46237 27.08815,7.7817 4.77319,-0.32447 7.49724,-0.9682 12.20794,-2.88493 4.98989,-2.03032 9.49029,-5.12626 13.39794,-9.2168 5.67234,-5.93783 8.97706,-12.33295 10.58266,-20.47902 0.75905,-3.85103 0.8162,-10.23627 0.12376,-13.82591 -1.69962,-8.81085 -5.17087,-15.45541 -11.27304,-21.57847 -7.67807,-7.704358 -17.19639,-11.626538 -28.2156,-11.626688 -9.67821,-1.4e-4 -18.15149,3.06494 -25.68513,9.291178 l -2.52384,2.08585 H 89.992617 c -17.543675,0 -17.543675,0 -18.092045,-0.69714 -0.729181,-0.927 -0.751811,-2.9617 -0.04268,-3.83761 0.505685,-0.62462 0.505685,-0.62462 16.465426,-0.69689 15.959742,-0.0723 15.959742,-0.0723 16.890672,-0.955278 3.63204,-3.4451 9.74947,-6.96941 15.74759,-9.072345 1.90799,-0.66894 7.47693,-1.932834 8.53281,-1.936554 0.59167,-0.0021 0.59531,-0.02722 0.59531,-4.10314 0,-4.101042 0,-4.101042 -1.0411,-4.101042 -1.49229,0 -2.32286,-0.392353 -2.92653,-1.382467 -0.63162,-1.035942 -0.67427,-2.069532 -0.12893,-3.12411 0.80331,-1.553435 1.16839,-1.60862 10.07974,-1.523638 8.0838,0.07709 8.0838,0.07709 8.85552,0.94116 0.61469,0.688242 0.77172,1.110882 0.77172,2.076979 0,1.026609 -0.13817,1.351083 -0.89958,2.112493 -0.78787,0.78787 -1.06715,0.899583 -2.24896,0.899583 h -1.34938 v 4.066956 4.066955 l 1.38907,0.181166 c 9.25144,1.206608 19.46778,6.376214 26.11856,13.216332 0.7954,0.81804 1.51193,1.48734 1.59229,1.48734 0.0804,0 0.90615,-0.7055 1.83509,-1.56778 1.68898,-1.567768 1.68898,-1.567768 0.9874,-2.401548 -0.84481,-1.00401 -0.87887,-1.55474 -0.1532,-2.47728 1.0423,-1.32508 1.60736,-1.0333 5.46007,2.81941 3.7927,3.792698 4.07942,4.329088 2.90419,5.433158 -0.82302,0.7732 -1.71643,0.72454 -2.62171,-0.14277 -0.74949,-0.71806 -0.74949,-0.71806 -2.74836,1.28081 l -1.99887,1.99887 1.24599,1.92609 c 4.63718,7.16834 7.39264,17.80703 6.85546,26.46854 -0.85542,13.79266 -7.16772,25.92001 -17.9459,34.47809 -3.65569,2.90268 -9.4317,5.97274 -14.18883,7.54163 -5.49502,1.81224 -13.89357,2.60764 -19.68588,1.86439 z M 59.011241,148.66929 c -1.496719,-0.60108 -1.951646,-3.19507 -0.76794,-4.37877 0.649431,-0.64943 0.649431,-0.64943 19.003878,-0.64943 18.354448,0 18.354448,0 18.929737,0.61236 0.424016,0.45135 0.575286,0.94292 0.575286,1.86948 0,1.57896 -0.302892,2.15001 -1.330388,2.5082 -0.993833,0.34645 -35.55272,0.38267 -36.410573,0.0382 z m 72.615309,-2.59091 c -0.73889,-0.48729 -13.97911,-13.71351 -15.49362,-15.47723 -0.63692,-0.74173 -0.85964,-1.25629 -0.8589,-1.98438 0.002,-2.04522 1.92662,-3.74427 3.79673,-3.35183 0.62755,0.13169 2.46189,1.7957 7.45137,6.75945 l 6.61888,6.58476 10.44674,-10.46352 c 5.74571,-5.75494 10.76825,-10.63541 11.16121,-10.84549 2.34067,-1.25138 5.10039,1.02025 4.58471,3.77385 -0.16499,0.88103 -1.6305,2.45096 -12.00397,12.85933 -6.49882,6.52067 -12.13755,12.02731 -12.5305,12.23698 -0.96719,0.51604 -2.30976,0.47715 -3.17265,-0.0919 z M 38.096271,133.58114 c -0.997476,-0.39621 -1.489088,-1.44171 -1.332242,-2.83324 0.269769,-2.39338 -2.552131,-2.18807 30.073447,-2.18807 28.764151,0 28.764151,0 29.33944,0.61237 0.578109,0.61537 0.797306,2.46995 0.410932,3.47682 -0.46392,1.20896 0.08521,1.1873 -29.771179,1.17451 -15.47728,-0.007 -28.401459,-0.1157 -28.720398,-0.24239 z M 58.33477,117.96436 c -0.738356,-0.73836 -0.79494,-0.91988 -0.675206,-2.166 0.240541,-2.50335 -1.306943,-2.31978 19.55481,-2.31978 18.238965,0 18.238965,0 18.888395,0.64944 0.495531,0.49552 0.649433,0.9293 0.649433,1.83044 0,1.55523 -0.180197,1.96081 -1.077256,2.4247 -0.635318,0.32854 -3.45517,0.38709 -18.641415,0.38709 -17.892869,0 -17.892869,0 -18.698761,-0.80589 z"
       id="path872" />
  </g>
</svg>
